<?xml version="1.0" encoding="UTF-8" standalone="no"?>
<!-- Created with Inkscape (http://www.inkscape.org/) -->

<svg
   xmlns:dc="http://purl.org/dc/elements/1.1/"
   xmlns:cc="http://creativecommons.org/ns#"
   xmlns:rdf="http://www.w3.org/1999/02/22-rdf-syntax-ns#"
   xmlns:svg="http://www.w3.org/2000/svg"
   xmlns="http://www.w3.org/2000/svg"
   xmlns:sodipodi="http://sodipodi.sourceforge.net/DTD/sodipodi-0.dtd"
   xmlns:inkscape="http://www.inkscape.org/namespaces/inkscape"
   width="799.99957"
   height="152.21928"
   id="svg3607"
   version="1.1"
   inkscape:version="0.48.5 r"
   sodipodi:docname="Новый документ 12">
  <defs
     id="defs3609" />
  <sodipodi:namedview
     id="base"
     pagecolor="#ffffff"
     bordercolor="#666666"
     borderopacity="1.0"
     inkscape:pageopacity="0.0"
     inkscape:pageshadow="2"
     inkscape:zoom="0.35"
     inkscape:cx="357.85694"
     inkscape:cy="144.68107"
     inkscape:document-units="px"
     inkscape:current-layer="layer1"
     showgrid="false"
     fit-margin-top="0"
     fit-margin-left="0"
     fit-margin-right="0"
     fit-margin-bottom="0"
     inkscape:window-width="1280"
     inkscape:window-height="1002"
     inkscape:window-x="1280"
     inkscape:window-y="0"
     inkscape:window-maximized="1" />
  <metadata
     id="metadata3612">
    <rdf:RDF>
      <cc:Work
         rdf:about="">
        <dc:format>image/svg+xml</dc:format>
        <dc:type
           rdf:resource="http://purl.org/dc/dcmitype/StillImage" />
        <dc:title></dc:title>
      </cc:Work>
    </rdf:RDF>
  </metadata>
  <g
     inkscape:label="Layer 1"
     inkscape:groupmode="layer"
     id="layer1"
     transform="translate(-17.143061,-524.82397)">
    <g
       id="g54"
       transform="matrix(5.3800901,0,0,-5.3800901,17.143061,677.04305)">
      <path
         inkscape:connector-curvature="0"
         d="m 0,0 0,17.851 c 0,3.202 0.794,5.586 2.383,7.149 1.589,1.564 4.009,2.347 7.261,2.347 l 3.914,0 0,-3.385 -4.516,0 c -1.756,0 -3.101,-0.477 -4.035,-1.431 -0.933,-0.954 -1.4,-2.324 -1.4,-4.109 l 0,-3.075 9.19,0 0,-3.385 -9.19,0 L 3.607,0 0,0 z"
         style="fill:#333333;fill-opacity:1;fill-rule:nonzero;stroke:none"
         id="path56" />
    </g>
    <path
       inkscape:connector-curvature="0"
       d="m 112.13306,576.31124 17.959,0 0,100.73201 -17.959,0 0,-100.73201 z m -2.044,-28.633 c 0,-3.028 1.065,-5.622 3.196,-7.784 2.125,-2.163 4.739,-3.245 7.828,-3.245 3.195,0 5.832,1.06 7.914,3.169 2.077,2.114 3.115,4.735 3.115,7.86 0,3.089 -1.081,5.703 -3.244,7.834 -2.163,2.125 -4.756,3.19 -7.785,3.19 -3.024,0 -5.617,-1.097 -7.78,-3.292 -2.163,-2.195 -3.244,-4.773 -3.244,-7.732"
       style="fill:#333333;fill-opacity:1;fill-rule:nonzero;stroke:none"
       id="path58" />
    <g
       id="g60"
       transform="matrix(5.3800901,0,0,-5.3800901,153.64406,677.04305)">
      <path
         inkscape:connector-curvature="0"
         d="m 0,0 0,10.219 c 0,1.848 0.335,3.437 1.006,4.766 0.67,1.329 1.609,2.342 2.817,3.037 1.208,0.696 2.591,1.044 4.147,1.044 1.557,0 2.937,-0.347 4.138,-1.039 1.202,-0.693 2.135,-1.708 2.799,-3.046 0.664,-1.338 0.997,-2.926 0.997,-4.762 l 0,-10.219 -3.301,0 0,10.822 c 0,0.983 -0.202,1.854 -0.603,2.615 -0.402,0.76 -0.956,1.351 -1.66,1.771 -0.705,0.42 -1.496,0.631 -2.374,0.631 -1.348,0 -2.462,-0.465 -3.343,-1.396 C 3.742,13.513 3.301,12.306 3.301,10.822 L 3.301,0 0,0 z"
         style="fill:#333333;fill-opacity:1;fill-rule:nonzero;stroke:none"
         id="path62" />
    </g>
    <g
       id="g64"
       transform="matrix(5.3800901,0,0,-5.3800901,357.94606,527.86904)">
      <path
         inkscape:connector-curvature="0"
         d="m 0,0 0,-16.488 c 0,-1.409 -0.057,-2.562 -0.172,-3.459 -0.114,-0.896 -0.397,-1.78 -0.848,-2.652 -0.532,-1.063 -1.223,-1.977 -2.073,-2.74 -0.85,-0.764 -1.821,-1.352 -2.911,-1.766 -1.092,-0.415 -2.227,-0.622 -3.409,-0.622 -1.774,0 -3.379,0.416 -4.817,1.248 -1.437,0.831 -2.564,1.993 -3.38,3.486 -0.816,1.493 -1.224,3.17 -1.224,5.031 0,1.304 0.235,2.545 0.705,3.723 0.469,1.177 1.128,2.21 1.975,3.097 0.847,0.887 1.839,1.58 2.977,2.078 1.137,0.497 2.34,0.746 3.607,0.746 1.384,0 2.64,-0.217 3.765,-0.649 l 1.326,-4.21 c -1.552,1.137 -3.134,1.706 -4.748,1.706 -1.187,0 -2.251,-0.271 -3.19,-0.811 -0.94,-0.541 -1.674,-1.305 -2.202,-2.291 -0.529,-0.986 -0.793,-2.103 -0.793,-3.352 0,-1.317 0.26,-2.478 0.779,-3.482 0.519,-1.005 1.241,-1.778 2.165,-2.319 0.924,-0.541 1.968,-0.811 3.13,-0.811 1.156,0 2.19,0.272 3.102,0.816 0.911,0.544 1.622,1.315 2.132,2.314 0.511,0.998 0.766,2.147 0.766,3.445 L -3.338,0 0,0 z"
         style="fill:#333333;fill-opacity:1;fill-rule:nonzero;stroke:none"
         id="path66" />
    </g>
    <g
       id="g68"
       transform="matrix(5.3800901,0,0,-5.3800901,375.60806,601.65704)">
      <path
         inkscape:connector-curvature="0"
         d="m 0,0 c 0,2.522 0.635,4.88 1.905,7.075 1.27,2.195 2.975,3.945 5.116,5.249 2.142,1.304 4.433,1.957 6.874,1.957 1.465,0 2.851,-0.214 4.158,-0.641 1.307,-0.428 2.491,-1.017 3.554,-1.769 1.063,-0.753 2.012,-1.634 2.847,-2.643 L 21.606,7.023 c -2.102,2.582 -4.673,3.873 -7.715,3.873 -1.83,0 -3.525,-0.498 -5.086,-1.492 C 7.244,8.41 6.006,7.076 5.091,5.402 4.176,3.728 3.718,1.927 3.718,0 c 0,-1.773 0.46,-3.476 1.378,-5.11 0.918,-1.634 2.162,-2.949 3.732,-3.947 1.57,-0.997 3.258,-1.496 5.063,-1.496 1.756,0 3.396,0.451 4.92,1.353 1.523,0.902 2.733,2.174 3.63,3.817 l 2.996,-2.205 c -0.866,-1.294 -1.886,-2.423 -3.06,-3.389 -1.174,-0.965 -2.481,-1.712 -3.921,-2.241 -1.44,-0.53 -2.96,-0.794 -4.56,-0.794 -2.442,0 -4.733,0.638 -6.874,1.915 C 4.88,-10.82 3.175,-9.106 1.905,-6.955 0.635,-4.804 0,-2.485 0,0"
         style="fill:#333333;fill-opacity:1;fill-rule:nonzero;stroke:none"
         id="path70" />
    </g>
    <g
       id="g72"
       transform="matrix(5.3800901,0,0,-5.3800901,529.02206,677.04305)">
      <path
         inkscape:connector-curvature="0"
         d="m 0,0 0,27.347 3.338,0 0,-10.405 c 1.546,1.465 3.28,2.198 5.203,2.198 2.312,0 4.118,-0.762 5.42,-2.286 1.301,-1.524 1.952,-3.711 1.952,-6.561 l 0,-10.293 -3.339,0 0,10.859 c 0,1.063 -0.174,1.969 -0.524,2.717 -0.349,0.748 -0.863,1.318 -1.544,1.711 -0.68,0.392 -1.486,0.589 -2.42,0.589 -0.896,0 -1.706,-0.23 -2.429,-0.691 C 4.933,14.724 4.366,14.061 3.955,13.196 3.544,12.33 3.338,11.313 3.338,10.145 L 3.338,0 0,0 z"
         style="fill:#333333;fill-opacity:1;fill-rule:nonzero;stroke:none"
         id="path74" />
    </g>
    <g
       id="g76"
       transform="matrix(5.3800901,0,0,-5.3800901,715.36506,675.39605)">
      <path
         inkscape:connector-curvature="0"
         d="m 0,0 0,9.347 c 0,1.299 -0.255,2.448 -0.765,3.45 -0.51,1.001 -1.223,1.771 -2.138,2.309 -0.914,0.538 -1.947,0.807 -3.097,0.807 -1.156,0 -2.193,-0.272 -3.111,-0.816 -0.918,-0.544 -1.635,-1.306 -2.151,-2.286 -0.517,-0.98 -0.775,-2.098 -0.775,-3.353 0,-1.285 0.266,-2.431 0.798,-3.435 0.531,-1.005 1.27,-1.785 2.216,-2.341 0.946,-0.557 2.003,-0.835 3.171,-0.835 1.626,0 3.197,0.571 4.711,1.715 L -2.467,0.343 c -0.971,-0.432 -2.225,-0.649 -3.764,-0.649 -1.182,0 -2.327,0.23 -3.436,0.691 -1.11,0.46 -2.098,1.119 -2.963,1.975 -0.866,0.856 -1.547,1.884 -2.045,3.083 -0.498,1.2 -0.746,2.514 -0.746,3.941 0,1.391 0.233,2.683 0.7,3.877 0.467,1.193 1.122,2.224 1.966,3.093 0.843,0.868 1.842,1.537 2.995,2.007 1.153,0.47 2.394,0.705 3.723,0.705 1.181,0 2.314,-0.203 3.399,-0.608 C -1.553,18.053 -0.587,17.471 0.26,16.71 1.106,15.95 1.792,15.05 2.318,14.012 2.77,13.134 3.052,12.244 3.167,11.341 3.281,10.438 3.338,9.279 3.338,7.864 L 3.338,0 0,0 z"
         style="fill:#333333;fill-opacity:1;fill-rule:nonzero;stroke:none"
         id="path78" />
    </g>
    <g
       id="g80"
       transform="matrix(5.3800901,0,0,-5.3800901,755.47606,547.87804)">
      <path
         inkscape:connector-curvature="0"
         d="m 0,0 3.338,0 0,-4.979 5.657,0 0,-3.153 -5.657,0 0,-8.356 c 0,-1.422 0.292,-2.499 0.877,-3.231 0.584,-0.733 1.33,-1.099 2.239,-1.099 1.62,0 3.036,0.445 4.247,1.335 l 0.761,-3.236 c -0.587,-0.359 -1.339,-0.663 -2.256,-0.914 -0.918,-0.25 -1.809,-0.375 -2.674,-0.375 -1.884,0 -3.444,0.601 -4.679,1.803 C 0.618,-21.002 0,-19.285 0,-17.053 L 0,0 z"
         style="fill:#333333;fill-opacity:1;fill-rule:nonzero;stroke:none"
         id="path82" />
    </g>
  </g>
</svg>
