<?xml version="1.0" encoding="UTF-8" standalone="no"?>
<svg
   xmlns:dc="http://purl.org/dc/elements/1.1/"
   xmlns:cc="http://creativecommons.org/ns#"
   xmlns:rdf="http://www.w3.org/1999/02/22-rdf-syntax-ns#"
   xmlns:svg="http://www.w3.org/2000/svg"
   xmlns="http://www.w3.org/2000/svg"
   viewBox="0 0 933.33331 1646.6667"
   height="1646.6667"
   width="933.33331"
   xml:space="preserve"
   id="svg2"
   version="1.1"><metadata
     id="metadata8"><rdf:RDF><cc:Work
         rdf:about=""><dc:format>image/svg+xml</dc:format><dc:type
           rdf:resource="http://purl.org/dc/dcmitype/StillImage" /></cc:Work></rdf:RDF></metadata><defs
     id="defs6"><clipPath
       id="clipPath18"
       clipPathUnits="userSpaceOnUse"><path
         id="path16"
         d="M 0,1235 H 700 V 0 H 0 Z" /></clipPath><clipPath
       id="clipPath266"
       clipPathUnits="userSpaceOnUse"><path
         id="path264"
         d="m 80,284.667 c 0,-12.731 6.029,-24.049 15.381,-31.272 v 0 l -0.003,-0.005 -0.668,-8.961 7.688,4.623 c 5.175,-2.49 10.976,-3.885 17.102,-3.885 v 0 c 21.815,0 39.5,17.684 39.5,39.5 v 0 c 0,21.815 -17.685,39.5 -39.5,39.5 v 0 c -21.816,0 -39.5,-17.685 -39.5,-39.5 m 7.997,0 c 0,17.398 14.104,31.503 31.503,31.503 v 0 c 17.398,0 31.503,-14.105 31.503,-31.503 v 0 c 0,-17.399 -14.105,-31.503 -31.503,-31.503 v 0 c -4.587,0 -8.941,0.988 -12.872,2.751 v 0 l 5.277,8.563 c 2.364,-0.889 4.921,-1.378 7.595,-1.378 v 0 c 11.912,0 21.568,9.656 21.568,21.567 v 0 c 0,11.911 -9.656,21.567 -21.568,21.567 v 0 c -11.911,0 -21.567,-9.656 -21.567,-21.567 v 0 c 0,-6.271 2.678,-11.914 6.949,-15.854 v 0 l -5.278,-8.567 c -7.082,5.777 -11.607,14.569 -11.607,24.421 m 18.175,0 c 0,7.36 5.967,13.328 13.328,13.328 v 0 c 7.36,0 13.328,-5.968 13.328,-13.328 v 0 c 0,-7.361 -5.968,-13.328 -13.328,-13.328 v 0 c -7.361,0 -13.328,5.967 -13.328,13.328" /></clipPath><linearGradient
       id="linearGradient278"
       spreadMethod="pad"
       gradientTransform="matrix(79,0,0,-79,80,284.29816)"
       gradientUnits="userSpaceOnUse"
       y2="0"
       x2="1"
       y1="0"
       x1="0"><stop
         id="stop272"
         offset="0"
         style="stop-opacity:1;stop-color:#9a49bf" /><stop
         id="stop274"
         offset="0.89796431"
         style="stop-opacity:1;stop-color:#fa4596" /><stop
         id="stop276"
         offset="1"
         style="stop-opacity:1;stop-color:#fa4596" /></linearGradient><clipPath
       id="clipPath288"
       clipPathUnits="userSpaceOnUse"><path
         id="path286"
         d="m 508.445,311.389 c 0,-10.564 5.003,-19.955 12.764,-25.95 v 0 l -0.003,-0.004 -0.554,-7.435 6.379,3.835 c 4.294,-2.065 9.108,-3.223 14.191,-3.223 v 0 c 18.103,0 32.778,14.676 32.778,32.777 v 0 c 0,18.103 -14.675,32.778 -32.778,32.778 v 0 c -18.102,0 -32.777,-14.675 -32.777,-32.778 m 6.636,0 c 0,14.438 11.704,26.142 26.141,26.142 v 0 c 14.438,0 26.143,-11.704 26.143,-26.142 v 0 c 0,-14.438 -11.705,-26.141 -26.143,-26.141 v 0 c -3.806,0 -7.419,0.821 -10.681,2.283 v 0 l 4.378,7.106 c 1.962,-0.738 4.085,-1.144 6.303,-1.144 v 0 c 9.884,0 17.897,8.012 17.897,17.896 v 0 c 0,9.884 -8.013,17.897 -17.897,17.897 v 0 c -9.885,0 -17.897,-8.013 -17.897,-17.897 v 0 c 0,-5.203 2.223,-9.885 5.768,-13.156 v 0 l -4.381,-7.108 c -5.876,4.793 -9.631,12.089 -9.631,20.264 m 15.082,0 c 0,6.108 4.951,11.06 11.059,11.06 v 0 c 6.109,0 11.06,-4.952 11.06,-11.06 v 0 c 0,-6.108 -4.951,-11.059 -11.06,-11.059 v 0 c -6.108,0 -11.059,4.951 -11.059,11.059" /></clipPath><linearGradient
       id="linearGradient300"
       spreadMethod="pad"
       gradientTransform="matrix(65.554916,0,0,-65.554916,508.4451,311.08344)"
       gradientUnits="userSpaceOnUse"
       y2="0"
       x2="1"
       y1="0"
       x1="0"><stop
         id="stop294"
         offset="0"
         style="stop-opacity:1;stop-color:#9a49bf" /><stop
         id="stop296"
         offset="0.89796431"
         style="stop-opacity:1;stop-color:#fa4596" /><stop
         id="stop298"
         offset="1"
         style="stop-opacity:1;stop-color:#fa4596" /></linearGradient><clipPath
       id="clipPath310"
       clipPathUnits="userSpaceOnUse"><path
         id="path308"
         d="M 0,1235 H 700 V 0 H 0 Z" /></clipPath></defs><g
     transform="matrix(1.3333333,0,0,-1.3333333,0,1646.6667)"
     id="g10"><g
       id="g12"><g
         clip-path="url(#clipPath18)"
         id="g14"><g
           transform="translate(322.5,537.5)"
           id="g20"><path
             id="path22"
             style="fill:#d9d9d9;fill-opacity:1;fill-rule:nonzero;stroke:none"
             d="M 0,0 C 0,15.188 12.312,27.5 27.5,27.5 42.688,27.5 55,15.188 55,0 55,-15.188 42.688,-27.5 27.5,-27.5 12.312,-27.5 0,-15.188 0,0 m 27.5,-65 c -9.465,0 -18.448,2.04 -26.559,5.677 L 11.83,-41.654 C 16.705,-43.489 21.983,-44.5 27.5,-44.5 52.076,-44.5 72,-24.577 72,0 72,24.577 52.076,44.5 27.5,44.5 2.923,44.5 -17,24.577 -17,0 c 0,-12.938 5.526,-24.581 14.34,-32.712 L -13.553,-50.388 C -28.164,-38.469 -37.5,-20.327 -37.5,0 c 0,35.898 29.102,65 65,65 35.898,0 65,-29.102 65,-65 0,-35.898 -29.102,-65 -65,-65 m 0,146.5 C -17.511,81.5 -54,45.011 -54,0 c 0,-26.269 12.44,-49.618 31.737,-64.522 l -0.008,-0.012 -1.379,-18.487 15.863,9.536 0.001,0.001 C 2.891,-78.621 14.859,-81.5 27.5,-81.5 72.512,-81.5 109,-45.011 109,0 109,45.011 72.512,81.5 27.5,81.5" /></g><g
           transform="translate(483.3115,234.6567)"
           id="g24"><path
             id="path26"
             style="fill:#333333;fill-opacity:1;fill-rule:nonzero;stroke:none"
             d="m 0,0 v 14.021 c 0,2.515 0.624,4.387 1.872,5.616 1.248,1.228 3.149,1.842 5.703,1.842 h 3.073 V 18.821 H 7.102 C 5.723,18.821 4.666,18.446 3.934,17.697 3.2,16.947 2.833,15.872 2.833,14.47 v -2.415 h 7.219 V 9.396 H 2.833 L 2.833,0 Z" /></g><path
           id="path28"
           style="fill:#333333;fill-opacity:1;fill-rule:nonzero;stroke:none"
           d="m 497.18,249.362 h 2.622 v -14.706 h -2.622 z m -0.299,4.181 c 0,0.442 0.155,0.821 0.466,1.137 0.31,0.315 0.692,0.473 1.143,0.473 0.466,0 0.852,-0.154 1.155,-0.463 0.303,-0.308 0.455,-0.69 0.455,-1.147 0,-0.451 -0.158,-0.833 -0.473,-1.143 -0.316,-0.311 -0.694,-0.466 -1.137,-0.466 -0.441,0 -0.82,0.16 -1.136,0.481 -0.316,0.32 -0.473,0.696 -0.473,1.128" /><g
           transform="translate(503.2402,234.6567)"
           id="g30"><path
             id="path32"
             style="fill:#333333;fill-opacity:1;fill-rule:nonzero;stroke:none"
             d="m 0,0 v 8.026 c 0,1.453 0.263,2.701 0.79,3.745 0.526,1.043 1.264,1.838 2.213,2.385 0.948,0.546 2.034,0.819 3.257,0.819 1.223,0 2.306,-0.272 3.251,-0.815 0.943,-0.544 1.677,-1.342 2.198,-2.393 0.521,-1.052 0.782,-2.298 0.782,-3.741 V 0 H 9.898 v 8.5 c 0,0.772 -0.158,1.457 -0.473,2.054 -0.316,0.597 -0.75,1.061 -1.304,1.391 C 7.567,12.275 6.946,12.44 6.257,12.44 5.198,12.44 4.322,12.075 3.631,11.344 2.938,10.613 2.593,9.666 2.593,8.5 V 0 Z" /></g><g
           transform="translate(533.0664,256.1362)"
           id="g34"><path
             id="path36"
             style="fill:#333333;fill-opacity:1;fill-rule:nonzero;stroke:none"
             d="m 0,0 v -12.95 c 0,-1.108 -0.045,-2.013 -0.135,-2.717 -0.09,-0.704 -0.312,-1.398 -0.667,-2.083 -0.418,-0.835 -0.96,-1.553 -1.628,-2.152 -0.668,-0.6 -1.429,-1.063 -2.287,-1.388 -0.856,-0.325 -1.749,-0.488 -2.677,-0.488 -1.393,0 -2.654,0.326 -3.783,0.98 -1.13,0.652 -2.014,1.566 -2.655,2.738 -0.641,1.173 -0.962,2.49 -0.962,3.952 0,1.024 0.185,1.999 0.554,2.924 0.369,0.925 0.886,1.736 1.552,2.433 0.665,0.696 1.444,1.24 2.337,1.631 0.894,0.391 1.838,0.587 2.833,0.587 1.088,0 2.075,-0.171 2.958,-0.51 l 1.041,-3.307 c -1.218,0.893 -2.461,1.34 -3.729,1.34 -0.932,0 -1.768,-0.212 -2.505,-0.637 -0.738,-0.425 -1.315,-1.025 -1.73,-1.799 -0.415,-0.775 -0.622,-1.653 -0.622,-2.633 0,-1.035 0.203,-1.946 0.611,-2.735 0.408,-0.79 0.974,-1.396 1.701,-1.821 0.726,-0.425 1.545,-0.637 2.458,-0.637 0.908,0 1.72,0.213 2.437,0.641 0.715,0.427 1.274,1.032 1.674,1.817 0.401,0.784 0.602,1.686 0.602,2.706 V 0 Z" /></g><g
           transform="translate(535.6445,245.2764)"
           id="g38"><path
             id="path40"
             style="fill:#333333;fill-opacity:1;fill-rule:nonzero;stroke:none"
             d="m 0,0 c 0,1.981 0.499,3.833 1.496,5.558 0.998,1.723 2.338,3.097 4.02,4.122 1.681,1.025 3.481,1.537 5.398,1.537 1.15,0 2.239,-0.168 3.266,-0.504 1.026,-0.335 1.957,-0.798 2.792,-1.389 0.835,-0.591 1.58,-1.283 2.235,-2.075 L 16.972,5.516 C 15.32,7.544 13.301,8.558 10.911,8.558 9.474,8.558 8.143,8.167 6.916,7.387 5.69,6.605 4.718,5.558 3.999,4.243 3.28,2.928 2.921,1.514 2.921,0 c 0,-1.393 0.36,-2.73 1.082,-4.014 0.721,-1.283 1.698,-2.316 2.932,-3.1 1.233,-0.783 2.558,-1.175 3.976,-1.175 1.379,0 2.667,0.354 3.864,1.062 1.198,0.709 2.148,1.708 2.852,2.999 l 2.352,-1.732 c -0.679,-1.016 -1.48,-1.903 -2.403,-2.662 -0.922,-0.758 -1.948,-1.345 -3.079,-1.76 -1.131,-0.416 -2.325,-0.624 -3.582,-0.624 -1.918,0 -3.718,0.502 -5.399,1.505 -1.682,1.002 -3.022,2.348 -4.02,4.038 C 0.499,-3.773 0,-1.952 0,0" /></g><g
           transform="translate(558.042,234.6274)"
           id="g42"><path
             id="path44"
             style="fill:#333333;fill-opacity:1;fill-rule:nonzero;stroke:none"
             d="m 0,0 v 21.479 h 2.622 v -8.171 c 1.214,1.15 2.575,1.726 4.086,1.726 1.815,0 3.235,-0.599 4.257,-1.796 1.022,-1.197 1.533,-2.914 1.533,-5.153 V 0 H 9.876 v 8.529 c 0,0.835 -0.137,1.547 -0.411,2.135 C 9.19,11.251 8.786,11.699 8.252,12.007 7.718,12.315 7.084,12.47 6.351,12.47 5.646,12.47 5.011,12.289 4.442,11.927 3.875,11.565 3.429,11.044 3.106,10.365 2.783,9.685 2.622,8.886 2.622,7.968 V 0 Z" /></g><g
           transform="translate(585.2471,234.6567)"
           id="g46"><path
             id="path48"
             style="fill:#333333;fill-opacity:1;fill-rule:nonzero;stroke:none"
             d="m 0,0 v 7.342 c 0,1.02 -0.201,1.923 -0.602,2.709 -0.4,0.787 -0.96,1.392 -1.678,1.814 -0.719,0.423 -1.53,0.634 -2.433,0.634 -0.908,0 -1.723,-0.214 -2.443,-0.641 -0.722,-0.427 -1.285,-1.026 -1.691,-1.795 -0.405,-0.771 -0.608,-1.648 -0.608,-2.634 0,-1.01 0.209,-1.909 0.627,-2.698 0.417,-0.79 0.998,-1.402 1.74,-1.839 0.743,-0.437 1.573,-0.656 2.491,-0.656 1.278,0 2.511,0.449 3.701,1.347 L -1.937,0.27 c -0.763,-0.34 -1.749,-0.51 -2.959,-0.51 -0.926,0 -1.826,0.18 -2.698,0.542 -0.872,0.362 -1.647,0.879 -2.327,1.552 -0.68,0.672 -1.215,1.479 -1.606,2.421 -0.391,0.942 -0.586,1.975 -0.586,3.096 0,1.093 0.183,2.108 0.55,3.045 0.367,0.937 0.881,1.747 1.543,2.429 0.664,0.682 1.448,1.208 2.353,1.577 0.906,0.369 1.881,0.553 2.925,0.553 0.928,0 1.817,-0.159 2.67,-0.477 0.851,-0.318 1.61,-0.775 2.275,-1.373 C 0.869,12.528 1.407,11.821 1.82,11.006 2.175,10.316 2.397,9.617 2.487,8.908 2.577,8.199 2.622,7.289 2.622,6.177 V 0 Z" /></g><g
           transform="translate(591.1025,253.2739)"
           id="g50"><path
             id="path52"
             style="fill:#333333;fill-opacity:1;fill-rule:nonzero;stroke:none"
             d="M 0,0 H 2.622 V -3.912 H 7.064 V -6.388 H 2.622 v -6.563 c 0,-1.116 0.23,-1.963 0.688,-2.538 0.459,-0.575 1.045,-0.863 1.759,-0.863 1.272,0 2.384,0.35 3.336,1.049 l 0.597,-2.542 c -0.461,-0.282 -1.052,-0.521 -1.772,-0.717 -0.72,-0.197 -1.42,-0.295 -2.099,-0.295 -1.481,0 -2.705,0.472 -3.676,1.416 C 0.484,-16.497 0,-15.148 0,-13.395 Z" /></g><g
           transform="translate(184.5571,274.979)"
           id="g54"><path
             id="path56"
             style="fill:#333333;fill-opacity:1;fill-rule:nonzero;stroke:none"
             d="m 0,0 v 17.851 c 0,3.202 0.794,5.586 2.383,7.149 1.589,1.564 4.009,2.347 7.261,2.347 h 3.914 V 23.962 H 9.042 c -1.756,0 -3.101,-0.477 -4.035,-1.431 -0.933,-0.954 -1.4,-2.324 -1.4,-4.109 v -3.075 h 9.19 V 11.962 H 3.607 L 3.607,0 Z" /></g><path
           id="path58"
           style="fill:#333333;fill-opacity:1;fill-rule:nonzero;stroke:none"
           d="m 202.213,293.702 h 3.338 v -18.723 h -3.338 z m -0.38,5.322 c 0,0.563 0.198,1.045 0.594,1.447 0.395,0.402 0.881,0.603 1.455,0.603 0.594,0 1.084,-0.197 1.471,-0.589 0.386,-0.393 0.579,-0.88 0.579,-1.461 0,-0.574 -0.201,-1.06 -0.603,-1.456 -0.402,-0.395 -0.884,-0.593 -1.447,-0.593 -0.562,0 -1.044,0.204 -1.446,0.612 -0.402,0.408 -0.603,0.887 -0.603,1.437" /><g
           transform="translate(209.9287,274.979)"
           id="g60"><path
             id="path62"
             style="fill:#333333;fill-opacity:1;fill-rule:nonzero;stroke:none"
             d="m 0,0 v 10.219 c 0,1.848 0.335,3.437 1.006,4.766 0.67,1.329 1.609,2.342 2.817,3.037 1.208,0.696 2.591,1.044 4.147,1.044 1.557,0 2.937,-0.347 4.138,-1.039 1.202,-0.693 2.135,-1.708 2.799,-3.046 0.664,-1.338 0.997,-2.926 0.997,-4.762 V 0 h -3.301 v 10.822 c 0,0.983 -0.202,1.854 -0.603,2.615 -0.402,0.76 -0.956,1.351 -1.66,1.771 -0.705,0.42 -1.496,0.631 -2.374,0.631 -1.348,0 -2.462,-0.465 -3.343,-1.396 C 3.742,13.513 3.301,12.306 3.301,10.822 V 0 Z" /></g><g
           transform="translate(247.9023,302.3257)"
           id="g64"><path
             id="path66"
             style="fill:#333333;fill-opacity:1;fill-rule:nonzero;stroke:none"
             d="m 0,0 v -16.488 c 0,-1.409 -0.057,-2.562 -0.172,-3.459 -0.114,-0.896 -0.397,-1.78 -0.848,-2.652 -0.532,-1.063 -1.223,-1.977 -2.073,-2.74 -0.85,-0.764 -1.821,-1.352 -2.911,-1.766 -1.092,-0.415 -2.227,-0.622 -3.409,-0.622 -1.774,0 -3.379,0.416 -4.817,1.248 -1.437,0.831 -2.564,1.993 -3.38,3.486 -0.816,1.493 -1.224,3.17 -1.224,5.031 0,1.304 0.235,2.545 0.705,3.723 0.469,1.177 1.128,2.21 1.975,3.097 0.847,0.887 1.839,1.58 2.977,2.078 1.137,0.497 2.34,0.746 3.607,0.746 1.384,0 2.64,-0.217 3.765,-0.649 l 1.326,-4.21 c -1.552,1.137 -3.134,1.706 -4.748,1.706 -1.187,0 -2.251,-0.271 -3.19,-0.811 -0.94,-0.541 -1.674,-1.305 -2.202,-2.291 -0.529,-0.986 -0.793,-2.103 -0.793,-3.352 0,-1.317 0.26,-2.478 0.779,-3.482 0.519,-1.005 1.241,-1.778 2.165,-2.319 0.924,-0.541 1.968,-0.811 3.13,-0.811 1.156,0 2.19,0.272 3.102,0.816 0.911,0.544 1.622,1.315 2.132,2.314 0.511,0.998 0.766,2.147 0.766,3.445 l 0,17.962 z" /></g><g
           transform="translate(251.1851,288.4995)"
           id="g68"><path
             id="path70"
             style="fill:#333333;fill-opacity:1;fill-rule:nonzero;stroke:none"
             d="m 0,0 c 0,2.522 0.635,4.88 1.905,7.075 1.27,2.195 2.975,3.945 5.116,5.249 2.142,1.304 4.433,1.957 6.874,1.957 1.465,0 2.851,-0.214 4.158,-0.641 1.307,-0.428 2.491,-1.017 3.554,-1.769 1.063,-0.753 2.012,-1.634 2.847,-2.643 L 21.606,7.023 c -2.102,2.582 -4.673,3.873 -7.715,3.873 -1.83,0 -3.525,-0.498 -5.086,-1.492 C 7.244,8.41 6.006,7.076 5.091,5.402 4.176,3.728 3.718,1.927 3.718,0 c 0,-1.773 0.46,-3.476 1.378,-5.11 0.918,-1.634 2.162,-2.949 3.732,-3.947 1.57,-0.997 3.258,-1.496 5.063,-1.496 1.756,0 3.396,0.451 4.92,1.353 1.523,0.902 2.733,2.174 3.63,3.817 l 2.996,-2.205 c -0.866,-1.294 -1.886,-2.423 -3.06,-3.389 -1.174,-0.965 -2.481,-1.712 -3.921,-2.241 -1.44,-0.53 -2.96,-0.794 -4.56,-0.794 -2.442,0 -4.733,0.638 -6.874,1.915 C 4.88,-10.82 3.175,-9.106 1.905,-6.955 0.635,-4.804 0,-2.485 0,0" /></g><g
           transform="translate(279.7002,274.9419)"
           id="g72"><path
             id="path74"
             style="fill:#333333;fill-opacity:1;fill-rule:nonzero;stroke:none"
             d="M 0,0 V 27.347 H 3.338 V 16.942 c 1.546,1.465 3.28,2.198 5.203,2.198 2.312,0 4.118,-0.762 5.42,-2.286 1.301,-1.524 1.952,-3.711 1.952,-6.561 V 0 h -3.339 v 10.859 c 0,1.063 -0.174,1.969 -0.524,2.717 -0.349,0.748 -0.863,1.318 -1.544,1.711 -0.68,0.392 -1.486,0.589 -2.42,0.589 -0.896,0 -1.706,-0.23 -2.429,-0.691 C 4.933,14.724 4.366,14.061 3.955,13.196 3.544,12.33 3.338,11.313 3.338,10.145 V 0 Z" /></g><g
           transform="translate(314.3359,274.979)"
           id="g76"><path
             id="path78"
             style="fill:#333333;fill-opacity:1;fill-rule:nonzero;stroke:none"
             d="m 0,0 v 9.347 c 0,1.299 -0.255,2.448 -0.765,3.45 -0.51,1.001 -1.223,1.771 -2.138,2.309 -0.914,0.538 -1.947,0.807 -3.097,0.807 -1.156,0 -2.193,-0.272 -3.111,-0.816 -0.918,-0.544 -1.635,-1.306 -2.151,-2.286 -0.517,-0.98 -0.775,-2.098 -0.775,-3.353 0,-1.285 0.266,-2.431 0.798,-3.435 0.531,-1.005 1.27,-1.785 2.216,-2.341 0.946,-0.557 2.003,-0.835 3.171,-0.835 1.626,0 3.197,0.571 4.711,1.715 L -2.467,0.343 c -0.971,-0.432 -2.225,-0.649 -3.764,-0.649 -1.182,0 -2.327,0.23 -3.436,0.691 -1.11,0.46 -2.098,1.119 -2.963,1.975 -0.866,0.856 -1.547,1.884 -2.045,3.083 -0.498,1.2 -0.746,2.514 -0.746,3.941 0,1.391 0.233,2.683 0.7,3.877 0.467,1.193 1.122,2.224 1.966,3.093 0.843,0.868 1.842,1.537 2.995,2.007 1.153,0.47 2.394,0.705 3.723,0.705 1.181,0 2.314,-0.203 3.399,-0.608 C -1.553,18.053 -0.587,17.471 0.26,16.71 1.106,15.95 1.792,15.05 2.318,14.012 2.77,13.134 3.052,12.244 3.167,11.341 3.281,10.438 3.338,9.279 3.338,7.864 V 0 Z" /></g><g
           transform="translate(321.7915,298.6812)"
           id="g80"><path
             id="path82"
             style="fill:#333333;fill-opacity:1;fill-rule:nonzero;stroke:none"
             d="M 0,0 H 3.338 V -4.979 H 8.995 V -8.132 H 3.338 v -8.356 c 0,-1.422 0.292,-2.499 0.877,-3.231 0.584,-0.733 1.33,-1.099 2.239,-1.099 1.62,0 3.036,0.445 4.247,1.335 l 0.761,-3.236 c -0.587,-0.359 -1.339,-0.663 -2.256,-0.914 -0.918,-0.25 -1.809,-0.375 -2.674,-0.375 -1.884,0 -3.444,0.601 -4.679,1.803 C 0.618,-21.002 0,-19.285 0,-17.053 Z" /></g><g
           transform="translate(483.3115,72.3135)"
           id="g84"><path
             id="path86"
             style="fill:#333333;fill-opacity:1;fill-rule:nonzero;stroke:none"
             d="m 0,0 v 14.021 c 0,2.515 0.624,4.387 1.872,5.616 1.248,1.228 3.149,1.842 5.703,1.842 h 3.073 V 18.821 H 7.102 C 5.723,18.821 4.666,18.446 3.934,17.697 3.2,16.947 2.833,15.872 2.833,14.47 v -2.415 h 7.219 V 9.396 H 2.833 L 2.833,0 Z" /></g><path
           id="path88"
           style="fill:#333333;fill-opacity:1;fill-rule:nonzero;stroke:none"
           d="m 497.18,87.02 h 2.622 V 72.314 h -2.622 z m -0.299,4.18 c 0,0.442 0.155,0.821 0.466,1.136 0.31,0.316 0.692,0.474 1.143,0.474 0.466,0 0.852,-0.155 1.155,-0.462 0.303,-0.309 0.455,-0.692 0.455,-1.148 0,-0.452 -0.158,-0.833 -0.473,-1.143 -0.316,-0.311 -0.694,-0.466 -1.137,-0.466 -0.441,0 -0.82,0.16 -1.136,0.48 -0.316,0.321 -0.473,0.697 -0.473,1.129" /><g
           transform="translate(503.2402,72.3135)"
           id="g90"><path
             id="path92"
             style="fill:#333333;fill-opacity:1;fill-rule:nonzero;stroke:none"
             d="m 0,0 v 8.026 c 0,1.453 0.263,2.701 0.79,3.745 0.526,1.043 1.264,1.838 2.213,2.385 0.948,0.546 2.034,0.82 3.257,0.82 1.223,0 2.306,-0.273 3.251,-0.817 0.943,-0.544 1.677,-1.341 2.198,-2.392 0.521,-1.051 0.782,-2.298 0.782,-3.741 V 0 H 9.898 v 8.5 c 0,0.772 -0.158,1.457 -0.473,2.054 -0.316,0.597 -0.75,1.061 -1.304,1.391 C 7.567,12.275 6.946,12.44 6.257,12.44 5.198,12.44 4.322,12.075 3.631,11.345 2.938,10.613 2.593,9.665 2.593,8.5 V 0 Z" /></g><g
           transform="translate(533.0664,93.793)"
           id="g94"><path
             id="path96"
             style="fill:#333333;fill-opacity:1;fill-rule:nonzero;stroke:none"
             d="m 0,0 v -12.95 c 0,-1.108 -0.045,-2.013 -0.135,-2.717 -0.09,-0.704 -0.312,-1.398 -0.667,-2.083 -0.418,-0.836 -0.96,-1.553 -1.628,-2.152 -0.668,-0.6 -1.429,-1.063 -2.287,-1.388 -0.856,-0.325 -1.749,-0.488 -2.677,-0.488 -1.393,0 -2.654,0.327 -3.783,0.979 -1.13,0.653 -2.014,1.567 -2.655,2.739 -0.641,1.173 -0.962,2.49 -0.962,3.952 0,1.024 0.185,1.999 0.554,2.924 0.369,0.925 0.886,1.736 1.552,2.433 0.665,0.696 1.444,1.24 2.337,1.631 0.894,0.391 1.838,0.587 2.833,0.587 1.088,0 2.075,-0.17 2.958,-0.51 l 1.041,-3.307 c -1.218,0.893 -2.461,1.34 -3.729,1.34 -0.932,0 -1.768,-0.213 -2.505,-0.637 -0.738,-0.425 -1.315,-1.025 -1.73,-1.799 -0.415,-0.775 -0.622,-1.653 -0.622,-2.633 0,-1.034 0.203,-1.946 0.611,-2.735 0.408,-0.79 0.974,-1.396 1.701,-1.821 0.726,-0.426 1.545,-0.637 2.458,-0.637 0.908,0 1.72,0.213 2.437,0.64 0.715,0.428 1.274,1.033 1.674,1.818 0.401,0.784 0.602,1.686 0.602,2.706 V 0 Z" /></g><g
           transform="translate(535.6445,82.9326)"
           id="g98"><path
             id="path100"
             style="fill:#333333;fill-opacity:1;fill-rule:nonzero;stroke:none"
             d="m 0,0 c 0,1.981 0.499,3.834 1.496,5.558 0.998,1.723 2.338,3.098 4.02,4.123 1.681,1.024 3.481,1.537 5.398,1.537 1.15,0 2.239,-0.168 3.266,-0.504 1.026,-0.336 1.957,-0.799 2.792,-1.39 0.835,-0.591 1.58,-1.282 2.235,-2.075 L 16.972,5.517 C 15.32,7.545 13.301,8.559 10.911,8.559 9.474,8.559 8.143,8.168 6.916,7.387 5.69,6.605 4.718,5.558 3.999,4.243 3.28,2.929 2.921,1.515 2.921,0.001 c 0,-1.393 0.36,-2.73 1.082,-4.014 0.721,-1.283 1.698,-2.317 2.932,-3.1 1.233,-0.783 2.558,-1.175 3.976,-1.175 1.379,0 2.667,0.353 3.864,1.062 1.198,0.708 2.148,1.707 2.852,2.998 l 2.352,-1.732 c -0.679,-1.016 -1.48,-1.902 -2.403,-2.661 -0.922,-0.758 -1.948,-1.345 -3.079,-1.761 -1.131,-0.415 -2.325,-0.623 -3.582,-0.623 -1.918,0 -3.718,0.501 -5.399,1.504 -1.682,1.003 -3.022,2.349 -4.02,4.039 C 0.499,-3.772 0,-1.951 0,0" /></g><g
           transform="translate(558.042,72.2842)"
           id="g102"><path
             id="path104"
             style="fill:#333333;fill-opacity:1;fill-rule:nonzero;stroke:none"
             d="m 0,0 v 21.479 h 2.622 v -8.171 c 1.214,1.15 2.575,1.725 4.086,1.725 1.815,0 3.235,-0.597 4.257,-1.795 1.022,-1.197 1.533,-2.915 1.533,-5.153 V 0 H 9.876 v 8.529 c 0,0.835 -0.137,1.547 -0.411,2.134 C 9.19,11.251 8.786,11.699 8.252,12.007 7.718,12.315 7.084,12.47 6.351,12.47 5.646,12.47 5.011,12.289 4.442,11.927 3.875,11.565 3.429,11.045 3.106,10.365 2.783,9.685 2.622,8.887 2.622,7.969 V 0 Z" /></g><g
           transform="translate(585.2471,72.3135)"
           id="g106"><path
             id="path108"
             style="fill:#333333;fill-opacity:1;fill-rule:nonzero;stroke:none"
             d="m 0,0 v 7.342 c 0,1.019 -0.201,1.923 -0.602,2.71 -0.4,0.786 -0.96,1.39 -1.678,1.813 -0.719,0.422 -1.53,0.634 -2.433,0.634 -0.908,0 -1.723,-0.214 -2.443,-0.642 -0.722,-0.426 -1.285,-1.025 -1.691,-1.794 -0.405,-0.77 -0.608,-1.648 -0.608,-2.633 0,-1.011 0.209,-1.91 0.627,-2.7 0.417,-0.789 0.998,-1.401 1.74,-1.838 0.743,-0.437 1.573,-0.656 2.491,-0.656 1.278,0 2.511,0.45 3.701,1.348 L -1.937,0.27 c -0.763,-0.34 -1.749,-0.51 -2.959,-0.51 -0.926,0 -1.826,0.18 -2.698,0.543 -0.872,0.361 -1.647,0.878 -2.327,1.551 -0.68,0.672 -1.215,1.479 -1.606,2.421 -0.391,0.943 -0.586,1.974 -0.586,3.096 0,1.093 0.183,2.108 0.55,3.045 0.367,0.937 0.881,1.746 1.543,2.429 0.664,0.682 1.448,1.208 2.353,1.577 0.906,0.369 1.881,0.554 2.925,0.554 0.928,0 1.817,-0.16 2.67,-0.478 0.851,-0.318 1.61,-0.775 2.275,-1.373 C 0.869,12.528 1.407,11.821 1.82,11.006 2.175,10.316 2.397,9.617 2.487,8.908 2.577,8.199 2.622,7.288 2.622,6.177 V 0 Z" /></g><g
           transform="translate(591.1025,90.9307)"
           id="g110"><path
             id="path112"
             style="fill:#333333;fill-opacity:1;fill-rule:nonzero;stroke:none"
             d="M 0,0 H 2.622 V -3.911 H 7.064 V -6.388 H 2.622 v -6.562 c 0,-1.117 0.23,-1.963 0.688,-2.539 0.459,-0.575 1.045,-0.863 1.759,-0.863 1.272,0 2.384,0.35 3.336,1.049 l 0.597,-2.542 c -0.461,-0.282 -1.052,-0.521 -1.772,-0.717 -0.72,-0.197 -1.42,-0.295 -2.099,-0.295 -1.481,0 -2.705,0.471 -3.676,1.417 C 0.484,-16.496 0,-15.147 0,-13.395 Z" /></g><g
           transform="translate(184.5571,95.0537)"
           id="g114"><path
             id="path116"
             style="fill:#333333;fill-opacity:1;fill-rule:nonzero;stroke:none"
             d="m 0,0 v 17.851 c 0,3.203 0.794,5.586 2.383,7.15 1.589,1.563 4.009,2.346 7.261,2.346 h 3.914 V 23.962 H 9.042 c -1.756,0 -3.101,-0.478 -4.035,-1.432 -0.933,-0.954 -1.4,-2.323 -1.4,-4.107 v -3.076 h 9.19 V 11.963 H 3.607 L 3.607,0 Z" /></g><path
           id="path118"
           style="fill:#333333;fill-opacity:1;fill-rule:nonzero;stroke:none"
           d="m 202.213,113.776 h 3.338 V 95.053 h -3.338 z m -0.38,5.324 c 0,0.562 0.198,1.044 0.594,1.446 0.395,0.401 0.881,0.602 1.455,0.602 0.594,0 1.084,-0.196 1.471,-0.588 0.386,-0.393 0.579,-0.879 0.579,-1.46 0,-0.576 -0.201,-1.061 -0.603,-1.456 -0.402,-0.397 -0.884,-0.594 -1.447,-0.594 -0.562,0 -1.044,0.204 -1.446,0.612 -0.402,0.407 -0.603,0.887 -0.603,1.438" /><g
           transform="translate(209.9287,95.0537)"
           id="g120"><path
             id="path122"
             style="fill:#333333;fill-opacity:1;fill-rule:nonzero;stroke:none"
             d="m 0,0 v 10.219 c 0,1.848 0.335,3.437 1.006,4.766 0.67,1.329 1.609,2.342 2.817,3.037 1.208,0.696 2.591,1.043 4.147,1.043 1.557,0 2.937,-0.345 4.138,-1.038 1.202,-0.692 2.135,-1.708 2.799,-3.047 0.664,-1.337 0.997,-2.925 0.997,-4.761 V 0 h -3.301 v 10.822 c 0,0.983 -0.202,1.855 -0.603,2.615 -0.402,0.76 -0.956,1.35 -1.66,1.771 -0.705,0.42 -1.496,0.631 -2.374,0.631 -1.348,0 -2.462,-0.466 -3.343,-1.396 C 3.742,13.513 3.301,12.306 3.301,10.822 V 0 Z" /></g><g
           transform="translate(247.9023,122.4004)"
           id="g124"><path
             id="path126"
             style="fill:#333333;fill-opacity:1;fill-rule:nonzero;stroke:none"
             d="m 0,0 v -16.487 c 0,-1.41 -0.057,-2.564 -0.172,-3.459 -0.114,-0.897 -0.397,-1.782 -0.848,-2.653 -0.532,-1.063 -1.223,-1.976 -2.073,-2.74 -0.85,-0.764 -1.821,-1.352 -2.911,-1.766 -1.092,-0.415 -2.227,-0.622 -3.409,-0.622 -1.774,0 -3.379,0.415 -4.817,1.248 -1.437,0.831 -2.564,1.993 -3.38,3.486 -0.816,1.493 -1.224,3.17 -1.224,5.031 0,1.304 0.235,2.545 0.705,3.723 0.469,1.177 1.128,2.21 1.975,3.097 0.847,0.887 1.839,1.579 2.977,2.078 1.137,0.497 2.34,0.746 3.607,0.746 1.384,0 2.64,-0.216 3.765,-0.649 l 1.326,-4.21 c -1.552,1.137 -3.134,1.706 -4.748,1.706 -1.187,0 -2.251,-0.27 -3.19,-0.811 -0.94,-0.541 -1.674,-1.305 -2.202,-2.291 -0.529,-0.986 -0.793,-2.104 -0.793,-3.352 0,-1.317 0.26,-2.477 0.779,-3.482 0.519,-1.005 1.241,-1.778 2.165,-2.319 0.924,-0.541 1.968,-0.811 3.13,-0.811 1.156,0 2.19,0.272 3.102,0.816 0.911,0.544 1.622,1.316 2.132,2.314 0.511,0.998 0.766,2.146 0.766,3.445 l 0,17.962 z" /></g><g
           transform="translate(251.1851,108.5742)"
           id="g128"><path
             id="path130"
             style="fill:#333333;fill-opacity:1;fill-rule:nonzero;stroke:none"
             d="m 0,0 c 0,2.522 0.635,4.881 1.905,7.075 1.27,2.195 2.975,3.945 5.116,5.249 2.142,1.304 4.433,1.956 6.874,1.956 1.465,0 2.851,-0.214 4.158,-0.64 1.307,-0.427 2.491,-1.017 3.554,-1.77 1.063,-0.752 2.012,-1.633 2.847,-2.641 L 21.606,7.023 c -2.102,2.581 -4.673,3.873 -7.715,3.873 -1.83,0 -3.525,-0.498 -5.086,-1.492 C 7.244,8.409 6.006,7.075 5.091,5.401 4.176,3.728 3.718,1.927 3.718,0 c 0,-1.772 0.46,-3.476 1.378,-5.109 0.918,-1.635 2.162,-2.951 3.732,-3.948 1.57,-0.998 3.258,-1.496 5.063,-1.496 1.756,0 3.396,0.45 4.92,1.353 1.523,0.901 2.733,2.174 3.63,3.817 l 2.996,-2.205 c -0.866,-1.294 -1.886,-2.423 -3.06,-3.389 -1.174,-0.965 -2.481,-1.712 -3.921,-2.242 -1.44,-0.528 -2.96,-0.793 -4.56,-0.793 -2.442,0 -4.733,0.638 -6.874,1.915 C 4.88,-10.82 3.175,-9.106 1.905,-6.955 0.635,-4.804 0,-2.485 0,0" /></g><g
           transform="translate(279.7002,95.0166)"
           id="g132"><path
             id="path134"
             style="fill:#333333;fill-opacity:1;fill-rule:nonzero;stroke:none"
             d="M 0,0 V 27.347 H 3.338 V 16.942 c 1.546,1.465 3.28,2.198 5.203,2.198 2.312,0 4.118,-0.762 5.42,-2.286 1.301,-1.524 1.952,-3.71 1.952,-6.561 V 0 h -3.339 v 10.859 c 0,1.063 -0.174,1.969 -0.524,2.717 -0.349,0.748 -0.863,1.319 -1.544,1.711 -0.68,0.393 -1.486,0.589 -2.42,0.589 -0.896,0 -1.706,-0.23 -2.429,-0.691 C 4.933,14.725 4.366,14.062 3.955,13.195 3.544,12.33 3.338,11.313 3.338,10.145 V 0 Z" /></g><g
           transform="translate(314.3359,95.0537)"
           id="g136"><path
             id="path138"
             style="fill:#333333;fill-opacity:1;fill-rule:nonzero;stroke:none"
             d="m 0,0 v 9.348 c 0,1.298 -0.255,2.448 -0.765,3.449 -0.51,1.002 -1.223,1.771 -2.138,2.309 -0.914,0.538 -1.947,0.807 -3.097,0.807 -1.156,0 -2.193,-0.272 -3.111,-0.816 -0.918,-0.544 -1.635,-1.306 -2.151,-2.286 -0.517,-0.98 -0.775,-2.097 -0.775,-3.352 0,-1.286 0.266,-2.432 0.798,-3.436 0.531,-1.004 1.27,-1.785 2.216,-2.341 0.946,-0.557 2.003,-0.835 3.171,-0.835 1.626,0 3.197,0.572 4.711,1.715 L -2.467,0.343 c -0.971,-0.433 -2.225,-0.649 -3.764,-0.649 -1.182,0 -2.327,0.231 -3.436,0.691 -1.11,0.461 -2.098,1.119 -2.963,1.975 -0.866,0.856 -1.547,1.884 -2.045,3.083 -0.498,1.2 -0.746,2.513 -0.746,3.942 0,1.39 0.233,2.682 0.7,3.876 0.467,1.193 1.122,2.223 1.966,3.093 0.843,0.868 1.842,1.537 2.995,2.007 1.153,0.47 2.394,0.704 3.723,0.704 1.181,0 2.314,-0.202 3.399,-0.607 C -1.553,18.054 -0.587,17.471 0.26,16.71 1.106,15.95 1.792,15.051 2.318,14.012 2.77,13.134 3.052,12.244 3.167,11.341 3.281,10.438 3.338,9.279 3.338,7.863 V 0 Z" /></g><g
           transform="translate(321.7915,118.7559)"
           id="g140"><path
             id="path142"
             style="fill:#333333;fill-opacity:1;fill-rule:nonzero;stroke:none"
             d="M 0,0 H 3.338 V -4.979 H 8.995 V -8.133 H 3.338 v -8.354 c 0,-1.422 0.292,-2.499 0.877,-3.233 0.584,-0.732 1.33,-1.098 2.239,-1.098 1.62,0 3.036,0.445 4.247,1.336 l 0.761,-3.237 c -0.587,-0.359 -1.339,-0.663 -2.256,-0.914 -0.918,-0.25 -1.809,-0.375 -2.674,-0.375 -1.884,0 -3.444,0.601 -4.679,1.804 C 0.618,-21.002 0,-19.285 0,-17.054 Z" /></g><g
           transform="translate(396,339.5)"
           id="g144"><path
             id="path146"
             style="fill:none;stroke:#333333;stroke-width:0.5;stroke-linecap:butt;stroke-linejoin:miter;stroke-miterlimit:10;stroke-dasharray:none;stroke-opacity:1"
             d="M 0,0 V -279" /></g><g
           transform="translate(530.75,829.9775)"
           id="g148"><path
             id="path150"
             style="fill:none;stroke:#cccccc;stroke-width:0.75;stroke-linecap:round;stroke-linejoin:round;stroke-miterlimit:10;stroke-dasharray:none;stroke-opacity:1"
             d="m 0,0 c 0,-27.614 -22.386,-50 -50,-50 -27.614,0 -50,22.386 -50,50 0,27.614 22.386,50 50,50 C -22.386,50 0,27.614 0,0 Z" /></g><g
           transform="translate(394.5,537.5)"
           id="g152"><path
             id="path154"
             style="fill:none;stroke:#555555;stroke-width:0.5;stroke-linecap:round;stroke-linejoin:round;stroke-miterlimit:4;stroke-dasharray:3.993, 3.993;stroke-dashoffset:0;stroke-opacity:1"
             d="M 0,0 C 0,-24.577 -19.924,-44.5 -44.5,-44.5 -69.077,-44.5 -89,-24.577 -89,0 -89,24.577 -69.077,44.5 -44.5,44.5 -19.924,44.5 0,24.577 0,0 Z" /></g><g
           transform="translate(377.5,537.5)"
           id="g156"><path
             id="path158"
             style="fill:none;stroke:#555555;stroke-width:0.5;stroke-linecap:round;stroke-linejoin:round;stroke-miterlimit:4;stroke-dasharray:3.926, 3.926;stroke-dashoffset:0;stroke-opacity:1"
             d="M 0,0 C 0,-15.188 -12.313,-27.5 -27.5,-27.5 -42.688,-27.5 -55,-15.188 -55,0 -55,15.188 -42.688,27.5 -27.5,27.5 -12.313,27.5 0,15.188 0,0 Z" /></g><g
           transform="translate(693.75,861.4775)"
           id="g160"><path
             id="path162"
             style="fill:none;stroke:#cccccc;stroke-width:0.75;stroke-linecap:round;stroke-linejoin:round;stroke-miterlimit:10;stroke-dasharray:none;stroke-opacity:1"
             d="m 0,0 c 0,-45.011 -36.489,-81.5 -81.5,-81.5 -45.011,0 -81.5,36.489 -81.5,81.5 0,45.011 36.489,81.5 81.5,81.5 C -36.489,81.5 0,45.011 0,0 Z" /></g><g
           transform="translate(431.5,537.5)"
           id="g164"><path
             id="path166"
             style="fill:none;stroke:#555555;stroke-width:0.5;stroke-linecap:round;stroke-linejoin:round;stroke-miterlimit:4;stroke-dasharray:4.001, 4.001;stroke-dashoffset:0;stroke-opacity:1"
             d="m 0,0 c 0,-45.011 -36.489,-81.5 -81.5,-81.5 -45.011,0 -81.5,36.489 -81.5,81.5 0,45.011 36.489,81.5 81.5,81.5 C -36.489,81.5 0,45.011 0,0 Z" /></g><g
           transform="translate(447.5,537.5)"
           id="g168"><path
             id="path170"
             style="fill:none;stroke:#555555;stroke-width:0.5;stroke-linecap:round;stroke-linejoin:round;stroke-miterlimit:4;stroke-dasharray:3.978, 3.978;stroke-dashoffset:0;stroke-opacity:1"
             d="m 0,0 c 0,-53.848 -43.652,-97.5 -97.5,-97.5 -53.848,0 -97.5,43.652 -97.5,97.5 0,53.848 43.652,97.5 97.5,97.5 C -43.652,97.5 0,53.848 0,0 Z" /></g><g
           transform="translate(415,537.5)"
           id="g172"><path
             id="path174"
             style="fill:none;stroke:#555555;stroke-width:0.5;stroke-linecap:round;stroke-linejoin:round;stroke-miterlimit:4;stroke-dasharray:4.004, 4.004;stroke-dashoffset:0;stroke-opacity:1"
             d="m 0,0 c 0,-35.898 -29.102,-65 -65,-65 -35.898,0 -65,29.102 -65,65 0,35.898 29.102,65 65,65 C -29.102,65 0,35.898 0,0 Z" /></g><g
           transform="translate(431.75,992.4775)"
           id="g176"><path
             id="path178"
             style="fill:none;stroke:#cccccc;stroke-width:0.75;stroke-linecap:round;stroke-linejoin:round;stroke-miterlimit:10;stroke-dasharray:none;stroke-opacity:1"
             d="m 0,0 c 0,-117.361 -95.14,-212.5 -212.5,-212.5 -117.36,0 -212.5,95.139 -212.5,212.5 0,117.36 95.14,212.5 212.5,212.5 C -95.14,212.5 0,117.36 0,0 Z" /></g><g
           transform="translate(692.75,1073.9775)"
           id="g180"><path
             id="path182"
             style="fill:none;stroke:#cccccc;stroke-width:0.75;stroke-linecap:round;stroke-linejoin:round;stroke-miterlimit:10;stroke-dasharray:none;stroke-opacity:1"
             d="m 0,0 c 0,-72.35 -58.65,-131 -131,-131 -72.35,0 -131,58.65 -131,131 0,72.349 58.65,131 131,131 C -58.65,131 0,72.349 0,0 Z" /></g><path
           id="path184"
           style="fill:none;stroke:#0071bc;stroke-width:0.75;stroke-linecap:round;stroke-linejoin:round;stroke-miterlimit:10;stroke-dasharray:none;stroke-opacity:1"
           d="M 430.927,780.322 H 6.25 V 1205 h 424.677 z" /><path
           id="path186"
           style="fill:none;stroke:#0071bc;stroke-width:0.75;stroke-linecap:round;stroke-linejoin:round;stroke-miterlimit:10;stroke-dasharray:none;stroke-opacity:1"
           d="M 430.927,942.676 H 693.25 V 1205 H 430.927 Z" /><path
           id="path188"
           style="fill:none;stroke:#0071bc;stroke-width:0.75;stroke-linecap:round;stroke-linejoin:round;stroke-miterlimit:10;stroke-dasharray:none;stroke-opacity:1"
           d="M 530.887,942.686 H 693.25 V 780.322 H 530.887 Z" /><path
           id="path190"
           style="fill:none;stroke:#0071bc;stroke-width:0.75;stroke-linecap:round;stroke-linejoin:round;stroke-miterlimit:10;stroke-dasharray:none;stroke-opacity:1"
           d="m 530.859,880.257 h -99.936 v -99.935 h 99.936 z" /><path
           id="path192"
           style="fill:none;stroke:#0071bc;stroke-width:0.75;stroke-linecap:round;stroke-linejoin:round;stroke-miterlimit:10;stroke-dasharray:none;stroke-opacity:1"
           d="m 493.272,880.257 h -62.349 v 62.415 h 62.349 z" /><path
           id="path194"
           style="fill:none;stroke:#0071bc;stroke-width:0.75;stroke-linecap:round;stroke-linejoin:round;stroke-miterlimit:10;stroke-dasharray:none;stroke-opacity:1"
           d="m 493.272,905.057 h 37.615 v 37.615 h -37.615 z" /><path
           id="path196"
           style="fill:none;stroke:#0071bc;stroke-width:0.75;stroke-linecap:round;stroke-linejoin:round;stroke-miterlimit:10;stroke-dasharray:none;stroke-opacity:1"
           d="m 506.016,905.057 h 24.872 v -24.806 h -24.872 z" /><path
           id="path198"
           style="fill:none;stroke:#0071bc;stroke-width:0.75;stroke-linecap:round;stroke-linejoin:round;stroke-miterlimit:10;stroke-dasharray:none;stroke-opacity:1"
           d="m 506.016,892.996 h -12.743 v -12.744 h 12.743 z" /><g
           transform="translate(6.75,779.9775)"
           id="g200"><path
             id="path202"
             style="fill:none;stroke:#0071bc;stroke-width:0.75;stroke-linecap:round;stroke-linejoin:round;stroke-miterlimit:10;stroke-dasharray:none;stroke-opacity:1"
             d="m 0,0 c 0,234.912 190.088,425 425,425 h -1 C 568.816,425 686,307.816 686,163 686,72.904 613.096,0 523,0 h 1 c -55.273,0 -100,44.727 -100,100 0,34.822 28.178,63 63,63 h -1 c 21.004,0 38,-16.996 38,-38 0,-13.818 -11.182,-25 -25,-25 -6.633,0 -12,5.814 -12,13" /></g><g
           transform="translate(268,1205)"
           id="g204"><path
             id="path206"
             style="fill:none;stroke:#0071bc;stroke-width:0.75;stroke-linecap:round;stroke-linejoin:round;stroke-miterlimit:10;stroke-dasharray:none;stroke-opacity:1"
             d="M 0,0 V -424.486" /></g><g
           transform="translate(693.25,1204.7651)"
           id="g208"><path
             id="path210"
             style="fill:none;stroke:#0071bc;stroke-width:0.75;stroke-linecap:round;stroke-linejoin:round;stroke-miterlimit:10;stroke-dasharray:none;stroke-opacity:1"
             d="M 0,0 -687,-424.185" /></g><g
           transform="translate(6.9355,1205)"
           id="g212"><path
             id="path214"
             style="fill:none;stroke:#0071bc;stroke-width:0.75;stroke-linecap:round;stroke-linejoin:round;stroke-miterlimit:10;stroke-dasharray:none;stroke-opacity:1"
             d="M 0,0 260.828,-424.624" /></g><g
           transform="translate(431.0469,1205)"
           id="g216"><path
             id="path218"
             style="fill:none;stroke:#0071bc;stroke-width:0.75;stroke-linecap:round;stroke-linejoin:round;stroke-miterlimit:10;stroke-dasharray:none;stroke-opacity:1"
             d="M 0,0 261.716,-424.678" /></g><g
           transform="translate(413.5254,640.6162)"
           id="g220"><path
             id="path222"
             style="fill:none;stroke:#555555;stroke-width:0.5;stroke-linecap:round;stroke-linejoin:round;stroke-miterlimit:4;stroke-dasharray:none;stroke-opacity:1"
             d="M 0,0 -1.049,-1.703" /></g><g
           transform="translate(410.3926,635.5312)"
           id="g224"><path
             id="path226"
             style="fill:none;stroke:#555555;stroke-width:0.5;stroke-linecap:round;stroke-linejoin:round;stroke-miterlimit:4;stroke-dasharray:3.973, 3.973;stroke-dashoffset:0;stroke-opacity:1"
             d="M 0,0 -128.148,-208.007" /></g><g
           transform="translate(281.2026,425.833)"
           id="g228"><path
             id="path230"
             style="fill:none;stroke:#555555;stroke-width:0.5;stroke-linecap:round;stroke-linejoin:round;stroke-miterlimit:4;stroke-dasharray:none;stroke-opacity:1"
             d="M 0,0 -1.049,-1.703" /></g><g
           transform="translate(422.1758,638.4258)"
           id="g232"><path
             id="path234"
             style="fill:none;stroke:#555555;stroke-width:0.5;stroke-linecap:round;stroke-linejoin:round;stroke-miterlimit:4;stroke-dasharray:none;stroke-opacity:1"
             d="M 0,0 -1.05,-1.703" /></g><g
           transform="translate(419.043,633.3408)"
           id="g236"><path
             id="path238"
             style="fill:none;stroke:#555555;stroke-width:0.5;stroke-linecap:round;stroke-linejoin:round;stroke-miterlimit:4;stroke-dasharray:3.973, 3.973;stroke-dashoffset:0;stroke-opacity:1"
             d="M 0,0 -128.149,-208.007" /></g><g
           transform="translate(289.8521,423.6426)"
           id="g240"><path
             id="path242"
             style="fill:none;stroke:#555555;stroke-width:0.5;stroke-linecap:round;stroke-linejoin:round;stroke-miterlimit:4;stroke-dasharray:none;stroke-opacity:1"
             d="M 0,0 -1.049,-1.703" /></g><g
           transform="translate(404.876,642.8062)"
           id="g244"><path
             id="path246"
             style="fill:none;stroke:#555555;stroke-width:0.5;stroke-linecap:round;stroke-linejoin:round;stroke-miterlimit:4;stroke-dasharray:none;stroke-opacity:1"
             d="M 0,0 -1.05,-1.703" /></g><g
           transform="translate(401.7432,637.7212)"
           id="g248"><path
             id="path250"
             style="fill:none;stroke:#555555;stroke-width:0.5;stroke-linecap:round;stroke-linejoin:round;stroke-miterlimit:4;stroke-dasharray:3.973, 3.973;stroke-dashoffset:0;stroke-opacity:1"
             d="M 0,0 -128.149,-208.007" /></g><g
           transform="translate(272.5527,428.0229)"
           id="g252"><path
             id="path254"
             style="fill:none;stroke:#555555;stroke-width:0.5;stroke-linecap:round;stroke-linejoin:round;stroke-miterlimit:4;stroke-dasharray:none;stroke-opacity:1"
             d="M 0,0 -1.049,-1.703" /></g></g></g><text
       id="text258"
       style="font-variant:normal;font-weight:300;font-stretch:normal;font-size:14px;font-family:'Roboto Light';-inkscape-font-specification:Roboto-Light;writing-mode:lr-tb;fill:#0071bc;fill-opacity:1;fill-rule:nonzero;stroke:none"
       transform="matrix(1,0,0,-1,277.9082,752)"><tspan
         id="tspan256"
         y="0"
         x="0 8.974 16.1126 22.874599 30.1266 37.6586 41.0606 48.1446 55.836201 63.718201 71.360802 77.8414 85.639397 91.396202 99.194199 102.5962 109.8482 117.0582 124.5062 131.7162 139.5842 147.45219">Сетка золотого сечения</tspan></text>
<g
       id="g260"><g
         clip-path="url(#clipPath266)"
         id="g262"><g
           id="g268"><g
             id="g270"><path
               id="path280"
               style="fill:url(#linearGradient278);stroke:none"
               d="m 80,284.667 c 0,-12.731 6.029,-24.049 15.381,-31.272 v 0 l -0.003,-0.005 -0.668,-8.961 7.688,4.623 c 5.175,-2.49 10.976,-3.885 17.102,-3.885 v 0 c 21.815,0 39.5,17.684 39.5,39.5 v 0 c 0,21.815 -17.685,39.5 -39.5,39.5 v 0 c -21.816,0 -39.5,-17.685 -39.5,-39.5 m 7.997,0 c 0,17.398 14.104,31.503 31.503,31.503 v 0 c 17.398,0 31.503,-14.105 31.503,-31.503 v 0 c 0,-17.399 -14.105,-31.503 -31.503,-31.503 v 0 c -4.587,0 -8.941,0.988 -12.872,2.751 v 0 l 5.277,8.563 c 2.364,-0.889 4.921,-1.378 7.595,-1.378 v 0 c 11.912,0 21.568,9.656 21.568,21.567 v 0 c 0,11.911 -9.656,21.567 -21.568,21.567 v 0 c -11.911,0 -21.567,-9.656 -21.567,-21.567 v 0 c 0,-6.271 2.678,-11.914 6.949,-15.854 v 0 l -5.278,-8.567 c -7.082,5.777 -11.607,14.569 -11.607,24.421 m 18.175,0 c 0,7.36 5.967,13.328 13.328,13.328 v 0 c 7.36,0 13.328,-5.968 13.328,-13.328 v 0 c 0,-7.361 -5.968,-13.328 -13.328,-13.328 v 0 c -7.361,0 -13.328,5.967 -13.328,13.328" /></g></g></g></g><g
       id="g282"><g
         clip-path="url(#clipPath288)"
         id="g284"><g
           id="g290"><g
             id="g292"><path
               id="path302"
               style="fill:url(#linearGradient300);stroke:none"
               d="m 508.445,311.389 c 0,-10.564 5.003,-19.955 12.764,-25.95 v 0 l -0.003,-0.004 -0.554,-7.435 6.379,3.835 c 4.294,-2.065 9.108,-3.223 14.191,-3.223 v 0 c 18.103,0 32.778,14.676 32.778,32.777 v 0 c 0,18.103 -14.675,32.778 -32.778,32.778 v 0 c -18.102,0 -32.777,-14.675 -32.777,-32.778 m 6.636,0 c 0,14.438 11.704,26.142 26.141,26.142 v 0 c 14.438,0 26.143,-11.704 26.143,-26.142 v 0 c 0,-14.438 -11.705,-26.141 -26.143,-26.141 v 0 c -3.806,0 -7.419,0.821 -10.681,2.283 v 0 l 4.378,7.106 c 1.962,-0.738 4.085,-1.144 6.303,-1.144 v 0 c 9.884,0 17.897,8.012 17.897,17.896 v 0 c 0,9.884 -8.013,17.897 -17.897,17.897 v 0 c -9.885,0 -17.897,-8.013 -17.897,-17.897 v 0 c 0,-5.203 2.223,-9.885 5.768,-13.156 v 0 l -4.381,-7.108 c -5.876,4.793 -9.631,12.089 -9.631,20.264 m 15.082,0 c 0,6.108 4.951,11.06 11.059,11.06 v 0 c 6.109,0 11.06,-4.952 11.06,-11.06 v 0 c 0,-6.108 -4.951,-11.059 -11.06,-11.059 v 0 c -6.108,0 -11.059,4.951 -11.059,11.059" /></g></g></g></g><g
       id="g304"><g
         clip-path="url(#clipPath310)"
         id="g306"><g
           transform="translate(530.1631,149.3896)"
           id="g312"><path
             id="path314"
             style="fill:#333333;fill-opacity:1;fill-rule:nonzero;stroke:none"
             d="M 0,0 C 0,6.108 4.951,11.06 11.06,11.06 17.168,11.06 22.119,6.108 22.119,0 22.119,-6.108 17.168,-11.061 11.06,-11.061 4.951,-11.061 0,-6.108 0,0 m 11.06,-26.142 c -3.807,0 -7.42,0.821 -10.682,2.284 l 4.379,7.105 c 1.961,-0.737 4.084,-1.144 6.303,-1.144 9.883,0 17.896,8.012 17.896,17.897 0,9.884 -8.013,17.896 -17.896,17.896 C 1.175,17.896 -6.838,9.884 -6.838,0 c 0,-5.203 2.223,-9.886 5.768,-13.156 l -4.381,-7.109 c -5.876,4.793 -9.631,12.09 -9.631,20.265 0,14.438 11.704,26.142 26.142,26.142 14.437,0 26.141,-11.704 26.141,-26.142 0,-14.438 -11.704,-26.142 -26.141,-26.142 m 0,58.919 C -7.043,32.777 -21.718,18.103 -21.718,0 c 0,-10.564 5.003,-19.955 12.764,-25.95 l -0.003,-0.004 -0.555,-7.436 6.38,3.835 v 0.001 c 4.294,-2.066 9.108,-3.223 14.192,-3.223 18.102,0 32.777,14.674 32.777,32.777 0,18.103 -14.675,32.777 -32.777,32.777" /></g><g
           transform="translate(106.1719,104.667)"
           id="g316"><path
             id="path318"
             style="fill:#333333;fill-opacity:1;fill-rule:nonzero;stroke:none"
             d="m 0,0 c 0,7.361 5.967,13.328 13.328,13.328 7.361,0 13.328,-5.967 13.328,-13.328 0,-7.361 -5.967,-13.328 -13.328,-13.328 C 5.967,-13.328 0,-7.361 0,0 m 13.328,-31.503 c -4.587,0 -8.941,0.988 -12.872,2.751 l 5.277,8.564 c 2.363,-0.889 4.921,-1.379 7.595,-1.379 11.912,0 21.568,9.656 21.568,21.567 0,11.911 -9.656,21.567 -21.568,21.567 C 1.417,21.567 -8.239,11.911 -8.239,0 c 0,-6.271 2.678,-11.914 6.95,-15.854 l -5.279,-8.567 C -13.65,-18.645 -18.175,-9.852 -18.175,0 c 0,17.398 14.105,31.503 31.503,31.503 17.399,0 31.503,-14.105 31.503,-31.503 0,-17.398 -14.104,-31.503 -31.503,-31.503 m 0,71.003 c -21.815,0 -39.5,-17.685 -39.5,-39.5 0,-12.731 6.029,-24.048 15.381,-31.271 l -0.003,-0.006 -0.668,-8.96 7.688,4.621 v 10e-4 c 5.175,-2.489 10.976,-3.885 17.102,-3.885 21.816,0 39.5,17.685 39.5,39.5 0,21.815 -17.684,39.5 -39.5,39.5" /></g></g></g></g></svg>