<?xml version="1.0" encoding="UTF-8" standalone="no"?>
<!-- Created with Inkscape (http://www.inkscape.org/) -->

<svg
   xmlns:dc="http://purl.org/dc/elements/1.1/"
   xmlns:cc="http://creativecommons.org/ns#"
   xmlns:rdf="http://www.w3.org/1999/02/22-rdf-syntax-ns#"
   xmlns:svg="http://www.w3.org/2000/svg"
   xmlns="http://www.w3.org/2000/svg"
   xmlns:sodipodi="http://sodipodi.sourceforge.net/DTD/sodipodi-0.dtd"
   xmlns:inkscape="http://www.inkscape.org/namespaces/inkscape"
   width="32px"
   height="32px"
   id="svg3012"
   version="1.1"
   inkscape:version="0.48.5 r"
   sodipodi:docname="Новый документ 2">
  <defs
     id="defs3014">
    <clipPath
       clipPathUnits="userSpaceOnUse"
       id="clipPath264">
      <path
         inkscape:connector-curvature="0"
         d="m 80,284.667 c 0,-12.731 6.029,-24.049 15.381,-31.272 l 0,0 -0.003,-0.005 -0.668,-8.961 7.688,4.623 c 5.175,-2.49 10.976,-3.885 17.102,-3.885 l 0,0 c 21.815,0 39.5,17.684 39.5,39.5 l 0,0 c 0,21.815 -17.685,39.5 -39.5,39.5 l 0,0 c -21.816,0 -39.5,-17.685 -39.5,-39.5 m 7.997,0 c 0,17.398 14.104,31.503 31.503,31.503 l 0,0 c 17.398,0 31.503,-14.105 31.503,-31.503 l 0,0 c 0,-17.399 -14.105,-31.503 -31.503,-31.503 l 0,0 c -4.587,0 -8.941,0.988 -12.872,2.751 l 0,0 5.277,8.563 c 2.364,-0.889 4.921,-1.378 7.595,-1.378 l 0,0 c 11.912,0 21.568,9.656 21.568,21.567 l 0,0 c 0,11.911 -9.656,21.567 -21.568,21.567 l 0,0 c -11.911,0 -21.567,-9.656 -21.567,-21.567 l 0,0 c 0,-6.271 2.678,-11.914 6.949,-15.854 l 0,0 -5.278,-8.567 c -7.082,5.777 -11.607,14.569 -11.607,24.421 m 18.175,0 c 0,7.36 5.967,13.328 13.328,13.328 l 0,0 c 7.36,0 13.328,-5.968 13.328,-13.328 l 0,0 c 0,-7.361 -5.968,-13.328 -13.328,-13.328 l 0,0 c -7.361,0 -13.328,5.967 -13.328,13.328"
         id="path266" />
    </clipPath>
    <linearGradient
       x1="0"
       y1="0"
       x2="1"
       y2="0"
       gradientUnits="userSpaceOnUse"
       gradientTransform="matrix(79,0,0,-79,80,284.29816)"
       spreadMethod="pad"
       id="linearGradient272">
      <stop
         style="stop-opacity:1;stop-color:#9a49bf"
         offset="0"
         id="stop274" />
      <stop
         style="stop-opacity:1;stop-color:#fa4596"
         offset="1"
         id="stop276" />
    </linearGradient>
  </defs>
  <sodipodi:namedview
     id="base"
     pagecolor="#ffffff"
     bordercolor="#666666"
     borderopacity="1.0"
     inkscape:pageopacity="0.0"
     inkscape:pageshadow="2"
     inkscape:zoom="22.395604"
     inkscape:cx="13.71505"
     inkscape:cy="17.506588"
     inkscape:current-layer="layer1"
     showgrid="true"
     inkscape:grid-bbox="true"
     inkscape:document-units="px"
     inkscape:window-width="1280"
     inkscape:window-height="1002"
     inkscape:window-x="1280"
     inkscape:window-y="0"
     inkscape:window-maximized="1" />
  <metadata
     id="metadata3017">
    <rdf:RDF>
      <cc:Work
         rdf:about="">
        <dc:format>image/svg+xml</dc:format>
        <dc:type
           rdf:resource="http://purl.org/dc/dcmitype/StillImage" />
        <dc:title></dc:title>
      </cc:Work>
    </rdf:RDF>
  </metadata>
  <g
     id="layer1"
     inkscape:label="Layer 1"
     inkscape:groupmode="layer">
    <g
       id="g260"
       transform="matrix(0.40506329,0,0,-0.4013143,-20.216691,136.91817)">
      <g
         id="g262"
         clip-path="url(#clipPath264)"
         transform="translate(-30.090043,17.007415)">
        <g
           id="g268">
          <g
             id="g270">
            <path
               d="m 80,284.667 c 0,-12.731 6.029,-24.049 15.381,-31.272 l 0,0 -0.003,-0.005 -0.668,-8.961 7.688,4.623 c 5.175,-2.49 10.976,-3.885 17.102,-3.885 l 0,0 c 21.815,0 39.5,17.684 39.5,39.5 l 0,0 c 0,21.815 -17.685,39.5 -39.5,39.5 l 0,0 c -21.816,0 -39.5,-17.685 -39.5,-39.5 m 7.997,0 c 0,17.398 14.104,31.503 31.503,31.503 l 0,0 c 17.398,0 31.503,-14.105 31.503,-31.503 l 0,0 c 0,-17.399 -14.105,-31.503 -31.503,-31.503 l 0,0 c -4.587,0 -8.941,0.988 -12.872,2.751 l 0,0 5.277,8.563 c 2.364,-0.889 4.921,-1.378 7.595,-1.378 l 0,0 c 11.912,0 21.568,9.656 21.568,21.567 l 0,0 c 0,11.911 -9.656,21.567 -21.568,21.567 l 0,0 c -11.911,0 -21.567,-9.656 -21.567,-21.567 l 0,0 c 0,-6.271 2.678,-11.914 6.949,-15.854 l 0,0 -5.278,-8.567 c -7.082,5.777 -11.607,14.569 -11.607,24.421 m 18.175,0 c 0,7.36 5.967,13.328 13.328,13.328 l 0,0 c 7.36,0 13.328,-5.968 13.328,-13.328 l 0,0 c 0,-7.361 -5.968,-13.328 -13.328,-13.328 l 0,0 c -7.361,0 -13.328,5.967 -13.328,13.328"
               style="fill:url(#linearGradient272);stroke:none"
               id="path278"
               inkscape:connector-curvature="0">
    
            </path>
          </g>
        </g>
      </g>
    </g>
  </g>
</svg>
