<?xml version="1.0" encoding="utf-8"?>
<!-- Generator: Adobe Illustrator 21.0.2, SVG Export Plug-In . SVG Version: 6.00 Build 0)  -->
<!DOCTYPE svg PUBLIC "-//W3C//DTD SVG 1.1//EN" "http://www.w3.org/Graphics/SVG/1.1/DTD/svg11.dtd" [
	<!ENTITY ns_extend "http://ns.adobe.com/Extensibility/1.0/">
	<!ENTITY ns_ai "http://ns.adobe.com/AdobeIllustrator/10.0/">
	<!ENTITY ns_graphs "http://ns.adobe.com/Graphs/1.0/">
	<!ENTITY ns_vars "http://ns.adobe.com/Variables/1.0/">
	<!ENTITY ns_imrep "http://ns.adobe.com/ImageReplacement/1.0/">
	<!ENTITY ns_sfw "http://ns.adobe.com/SaveForWeb/1.0/">
	<!ENTITY ns_custom "http://ns.adobe.com/GenericCustomNamespace/1.0/">
	<!ENTITY ns_adobe_xpath "http://ns.adobe.com/XPath/1.0/">
]>
<svg version="1.1" id="Layer_1" xmlns:x="&ns_extend;" xmlns:i="&ns_ai;" xmlns:graph="&ns_graphs;"
	 xmlns="http://www.w3.org/2000/svg" xmlns:xlink="http://www.w3.org/1999/xlink" x="0px" y="0px" viewBox="0 0 16 16"
	 style="enable-background:new 0 0 16 16;" xml:space="preserve">
     
<defs>
    <style>
        .gradient0{fill:url(#SVGID_1_);}
        .gradient1{fill:url(#SVGID_2_);}
        .stop1{stop-color: #9A49BF;}
        .stop2{stop-color: #A049BC;}
        .stop3{stop-color: #E146A1;}
        .stop4{stop-color: #FA4596;}
    </style>
    <linearGradient id="SVGID_1_" gradientUnits="userSpaceOnUse" x1="0" y1="8" x2="16" y2="8">
        <stop  class='stop1' offset="0"/>
        <stop  class='stop2' offset="5.611223e-02"/>
        <stop  class='stop3' offset="0.6975"/>
        <stop  class='stop4' offset="1"/>
    </linearGradient>
    <linearGradient id="SVGID_2_" gradientUnits="userSpaceOnUse" x1="3.9545" y1="7.9976" x2="12.0521" y2="7.9976">
        <stop  class='stop1' offset="0"/>
        <stop  class='stop2' offset="5.611223e-02"/>
        <stop  class='stop3' offset="0.6975"/>
        <stop  class='stop4' offset="1"/>
    </linearGradient>
    
    
    <g id='icon_add'>
        <path id='icon_add__circle' d="M16,7.9c0.1,4.2-3.3,7.9-7.6,8.1C3.7,16.2,0.2,12.6,0,8.2C-0.1,4.2,3.1,0.1,7.8,0C12.1-0.1,15.9,3.2,16,7.9z
            M8,1C4.1,1,1.2,4.1,1,7.7C0.9,11.9,4.3,15,8,15c3.8,0,6.9-3.1,6.9-6.9C15,4.2,11.9,1.1,8,1z"/>
        <path id='icon_add__plus' d="M8.4,7.6c1,0,1.9,0,2.8,0c0.5,0,0.8,0.2,0.8,0.5c0,0.3-0.3,0.5-0.8,0.5c-0.8,0-1.6,0-2.5,0
            c-0.1,0-0.2,0-0.4,0c0,0.8,0,1.7,0,2.5c0,0.1,0,0.2,0,0.4c0,0.4-0.2,0.6-0.5,0.6c-0.3,0-0.5-0.2-0.5-0.6c0-0.8,0-1.6,0-2.4
            c0-0.1,0-0.2,0-0.4c-0.9,0-1.7,0-2.5,0c-0.1,0-0.2,0-0.4,0C4.2,8.6,4,8.4,4,8.1c0-0.3,0.2-0.5,0.6-0.5c0.7,0,1.4,0,2,0
            c0.3,0,0.5,0,0.8,0c0-0.2,0-0.4,0-0.6c0-0.8,0-1.6,0-2.4c0-0.4,0.2-0.6,0.5-0.6c0.3,0,0.5,0.2,0.5,0.6C8.4,5.6,8.4,6.5,8.4,7.6z"
        />
    </g>
    
    <g id='icon_add__color'>
        <use xlink:href="#icon_add__circle" class='gradient0'/>
        <use xlink:href="#icon_add__plus" class='gradient1'/>
    </g>
    
    
    <path id='icon_comment' d="M16,10.9c0,1-0.7,1.7-1.7,1.7c-0.6,0-1.1,0-1.7,0c-0.2,0-0.3,0.1-0.4,0.2c-0.3,0.5-0.6,1-0.9,1.5
        c-0.6,1-1.8,1-2.4,0c-0.3-0.5-0.7-1-1-1.5c-0.1-0.2-0.2-0.2-0.4-0.2c-1.9,0-3.9,0-5.8,0C0.9,12.6,0,12,0,10.9c0-2.7,0-5.5,0-8.2
        C0,1.6,0.7,1,1.8,1c4.2,0,8.3,0,12.5,0C15.3,1,16,1.6,16,2.7c0,1.4,0,2.7,0,4.1C16,8.2,16,9.6,16,10.9z M1.8,1.9
        C1.2,1.9,1,2.2,1,2.8c0,2.7,0,5.3,0,8c0,0.6,0.2,0.9,0.9,0.9c2,0,3.9,0,5.9,0c0.4,0,0.7,0.2,1,0.5c0.3,0.5,0.7,1.1,1,1.6
        c0.3,0.4,0.6,0.4,0.8,0c0.4-0.6,0.7-1.1,1.1-1.7c0.2-0.3,0.4-0.4,0.8-0.4c0.6,0,1.3,0,1.9,0c0.5,0,0.7-0.3,0.7-0.7
        c0-2.7,0-5.5,0-8.2c0-0.5-0.3-0.7-0.8-0.7c-2.1,0-4.2,0-6.2,0C5.9,1.9,3.9,1.9,1.8,1.9z"/>
            
    <use id='icon_comment_color' xlink:href="#icon_comment" class='gradient0' />
    
    
    
    
</defs>

</svg>


